HIERARCHY
ROOT hip
{
	OFFSET 0.000000 0.000000 0.000000 
	CHANNELS 6 Xposition Yposition Zposition Xrotation Zrotation Yrotation
	JOINT abdomen
	{
		OFFSET 0.000000 3.402643 0.000000 
		CHANNELS 3 Xrotation Zrotation Yrotation
		JOINT chest
		{
			OFFSET 0.000000 8.438565 -0.680529 
			CHANNELS 3 Xrotation Zrotation Yrotation
			JOINT neck
			{
				OFFSET 0.000000 10.207942 -0.272212 
				CHANNELS 3 Xrotation Zrotation Yrotation
				JOINT head
				{
					OFFSET 0.000000 3.130431 0.000000 
					CHANNELS 3 Xrotation Zrotation Yrotation
					End Site
					{
						OFFSET 0.000000 3.130435 0.000000 
					}
				}
			}
			JOINT lCollar
			{
				OFFSET 3.470700 6.669187 -0.816635 
				CHANNELS 3 Yrotation Zrotation Xrotation
				JOINT lShldr
				{
					OFFSET 3.198488 0.000000 0.000000 
					CHANNELS 3 Zrotation Yrotation Xrotation
					JOINT lForeArm
					{
						OFFSET 10.139888 0.000000 0.000000 
						CHANNELS 3 Yrotation Zrotation Xrotation
						JOINT lHand
						{
							OFFSET 8.370511 0.000000 0.000000 
							CHANNELS 3 Zrotation Yrotation Xrotation
							End Site
							{
								OFFSET 4.083176 0.000000 0.000000 
							}
						}
					}
				}
			}
			JOINT rCollar
			{
				OFFSET -3.470700 6.669187 -0.816635 
				CHANNELS 3 Yrotation Zrotation Xrotation
				JOINT rShldr
				{
					OFFSET -3.198488 0.000000 0.000000 
					CHANNELS 3 Zrotation Yrotation Xrotation
					JOINT rForeArm
					{
						OFFSET -10.139888 0.000000 0.000000 
						CHANNELS 3 Yrotation Zrotation Xrotation
						JOINT rHand
						{
							OFFSET -8.370511 0.000000 0.000000 
							CHANNELS 3 Zrotation Yrotation Xrotation
							End Site
							{
								OFFSET -4.083176 0.000000 0.000000 
							}
						}
					}
				}
			}
		}
	}
	JOINT lThigh
	{
		OFFSET 5.308129 -1.633274 1.361059 
		CHANNELS 3 Xrotation Zrotation Yrotation
		JOINT lShin
		{
			OFFSET -2.041588 -20.007561 0.000000 
			CHANNELS 3 Xrotation Zrotation Yrotation
			JOINT lFoot
			{
				OFFSET 0.000000 -19.190928 -1.224953 
				CHANNELS 3 Xrotation Yrotation Zrotation
				End Site
				{
					OFFSET 0.000000 -2.449906 4.627600 
				}
			}
		}
	}
	JOINT rThigh
	{
		OFFSET -5.308129 -1.633274 1.361059 
		CHANNELS 3 Xrotation Zrotation Yrotation
		JOINT rShin
		{
			OFFSET 2.041588 -20.007561 0.000000 
			CHANNELS 3 Xrotation Zrotation Yrotation
			JOINT rFoot
			{
				OFFSET 0.000000 -19.190928 -1.224953 
				CHANNELS 3 Xrotation Yrotation Zrotation
				End Site
				{
					OFFSET 0.000000 -2.449906 4.627600 
				}
			}
		}
	}
}
MOTION
Frames: 11
Frame Time: 0.033333
60.709435 52.545830 -69.285835 177.529312 179.121094 2.422025 24.640348 -11.771180 -3.742846 -20.605471 5.859375 3.105469 51.063168 8.107644 2.471410 -3.984375 -9.130859 5.283204 2.000000 -2.000000 0.000000 -28.515623 -32.968750 43.793518 -107.507034 0.238733 -3.345082 65.957108 14.478777 60.253620 -2.000000 2.000000 0.000000 84.951172 -29.384766 5.581148 55.110706 1.429910 -2.094245 -37.994530 -59.549221 31.403519 -5.986010 17.449322 7.568977 21.780039 -4.823791 -2.275651 -14.582408 -4.313294 -7.201639 -13.198001 -3.354900 -24.649624 23.883102 4.511072 2.136392 4.076002 -35.392067 19.425795 
60.139988 52.530083 -69.344978 177.529312 179.121094 2.070462 24.653584 -11.935261 -3.806587 -20.429688 5.507813 3.077109 51.063168 8.107644 2.471410 -4.892579 -8.808594 5.644532 2.000000 -2.000000 0.000000 -26.445311 -34.296871 42.611683 -107.491882 0.571156 -3.178528 65.995964 14.647155 60.423351 -2.000000 2.000000 0.000000 84.853516 -28.876953 5.639816 55.293171 1.600659 -2.338828 -38.196060 -59.106537 31.372511 -6.259527 16.864128 6.817717 21.607845 -4.912347 -2.072173 -14.629786 -3.445243 -7.630106 -13.560831 -4.108146 -24.062561 24.246910 4.677326 2.032587 4.393135 -35.410042 18.897892 
59.539879 52.537945 -69.414398 177.177750 179.296875 1.718870 24.707769 -11.991029 -4.048642 -19.912109 5.312500 2.734375 51.063168 8.107644 2.471410 -6.318359 -8.750000 6.503907 2.000000 -2.000000 0.000000 -24.082029 -34.941402 40.990505 -107.320877 0.405598 -3.335178 65.549210 14.476323 60.722424 -2.000000 2.000000 0.000000 85.195313 -27.744139 5.727877 55.462559 1.410980 -2.105125 -37.582035 -58.475655 31.056351 -6.278532 16.149490 6.846827 21.778027 -4.911379 -2.096353 -15.134007 -3.313668 -8.181552 -14.090433 -4.676560 -23.472528 24.768373 4.656852 2.052202 4.927040 -35.421711 19.249199 
58.914890 52.530083 -69.492737 177.011734 179.472656 1.201262 24.559160 -12.078721 -4.258957 -19.570314 5.126954 2.568359 51.063168 8.107644 2.471410 -7.910158 -8.662109 7.578125 2.000000 -2.000000 0.000000 -21.806641 -35.605469 39.306641 -107.156548 0.324228 -3.389139 65.386986 14.594731 60.557743 -2.000000 2.000000 0.000000 86.025391 -26.386721 5.239800 55.638607 1.411549 -2.114870 -37.195873 -58.392372 30.582121 -6.093516 15.555488 7.227301 22.302740 -4.844280 -2.117783 -15.694105 -3.136944 -8.658179 -14.460943 -5.476726 -22.192141 25.496527 4.697067 1.837833 6.142673 -35.570667 19.987360 
58.270802 52.569458 -69.578598 176.835953 179.648438 0.683654 24.771036 -12.393131 -4.425200 -19.404297 4.951172 2.548828 51.063168 8.107644 2.471410 -9.160158 -8.681640 8.105469 2.000000 -2.000000 0.000000 -20.908205 -35.634762 38.828121 -107.326836 0.218490 -3.187463 65.173943 14.583275 60.621571 -2.000000 2.000000 0.000000 86.718750 -25.732422 4.419590 55.825779 1.571511 -2.174016 -36.662910 -57.716309 30.410021 -6.637508 14.756590 7.171566 22.814032 -4.882493 -2.187040 -15.983329 -2.943531 -8.525477 -15.302151 -6.298363 -21.208227 26.181997 4.676126 1.696204 7.344800 -35.000721 20.439943 
57.613640 52.593102 -69.670715 176.650406 179.824219 -0.019501 24.947697 -12.635770 -4.364300 -19.404297 4.951172 2.548828 51.063168 8.107644 2.471410 -9.697268 -8.564453 8.320313 2.000000 -2.000000 0.000000 -20.722658 -35.947269 38.730465 -106.980492 0.334540 -3.379958 64.682686 14.341763 60.541309 -2.000000 2.000000 0.000000 87.353516 -25.302734 3.648170 55.814411 1.401800 -2.115438 -36.418774 -57.364574 30.338594 -6.426260 14.180012 7.344554 22.640614 -4.903043 -2.156693 -16.127140 -2.271071 -9.046348 -15.964734 -6.843816 -20.784990 26.539425 4.559984 2.234488 8.771156 -34.366055 21.045868 
56.949306 52.608845 -69.767799 176.308609 179.824219 -0.546845 25.128641 -13.033251 -4.366158 -19.404297 4.951172 2.548828 51.063168 8.107644 2.471410 -9.873047 -8.847655 8.281251 2.000000 -2.000000 0.000000 -20.732422 -35.917969 38.681644 -106.622810 0.200492 -3.499282 64.692368 14.342282 60.130909 -2.000000 2.000000 0.000000 88.144531 -25.332029 2.652073 55.814411 1.401800 -2.115438 -36.564533 -57.144863 30.947615 -6.572073 13.446405 7.547896 22.459480 -4.807545 -2.143562 -16.146580 -2.139745 -9.206519 -16.970690 -7.674031 -19.788055 27.426054 4.530356 2.290548 10.677296 -33.473289 21.974379 
56.283710 52.608845 -69.868469 176.132828 179.990234 -1.230467 25.493876 -13.183538 -4.466683 -19.404297 4.775391 2.519531 51.063168 8.107644 2.471410 -9.863284 -9.248046 8.105469 2.000000 -2.000000 0.000000 -21.113279 -35.341797 38.480679 -106.964905 0.385356 -3.177560 65.405449 14.272964 59.576263 -2.000000 2.000000 0.000000 88.583984 -25.673826 2.402344 55.638607 1.411549 -2.114870 -35.915737 -56.748905 30.403641 -6.551031 12.543741 8.060978 22.668447 -4.818107 -2.124314 -16.610912 -1.756341 -9.537369 -17.829618 -8.230269 -18.792143 28.119591 4.491312 2.483744 11.840019 -32.670994 22.083220 
55.622608 52.616730 -69.971458 175.771484 -179.843750 -1.943386 25.861336 -13.574060 -4.487189 -19.404297 4.775391 2.695313 51.063168 8.107644 2.471410 -9.482423 -9.765624 7.929688 2.000000 -2.000000 0.000000 -21.650391 -34.404297 38.148781 -107.316742 0.384792 -3.187305 67.059647 14.401707 59.200130 -2.000000 2.000000 0.000000 88.105469 -26.103516 3.198829 55.820793 1.531464 -1.990551 -35.502712 -56.489162 30.150568 -6.589882 11.879648 7.895412 22.309229 -4.915978 -2.092454 -16.901308 -0.931359 -9.258604 -18.617529 -9.027963 -17.951122 28.473267 4.471969 2.371819 13.718536 -31.713873 22.958534 
54.972046 52.593102 -70.075371 175.595703 -179.667969 -2.636775 26.054335 -13.967919 -4.496470 -19.580078 4.775392 2.686360 51.063168 8.107644 2.471410 -9.287110 -10.283201 7.783204 2.000000 -2.000000 0.000000 -22.500000 -33.740234 38.164066 -107.492523 0.394542 -3.187869 67.666626 14.327283 58.876434 -2.000000 2.000000 0.000000 87.568359 -26.787109 4.888178 55.990719 1.402936 -2.134928 -35.764908 -56.420414 30.692125 -6.792751 11.182468 8.265187 22.309681 -4.912234 -2.101509 -16.653900 -0.676598 -9.063045 -19.595894 -9.859898 -16.742052 28.993484 4.550780 1.937346 15.414794 -30.818558 23.629431 
54.337921 52.569458 -70.179062 175.429688 -179.501953 -3.144616 26.419241 -14.212633 -4.460177 -19.580080 4.609375 2.832031 51.063168 8.107644 2.471410 -8.720704 -10.898437 7.451174 2.000000 -2.000000 0.000000 -22.939453 -33.291016 37.763676 -107.683891 0.353477 -3.390831 67.695145 14.504908 58.733997 -2.000000 2.000000 0.000000 86.943359 -26.953125 5.830078 55.990719 1.402936 -2.134928 -35.896061 -56.386063 30.953960 -6.999403 10.375429 8.617468 22.658150 -4.818015 -2.133212 -17.154850 -0.175472 -8.835069 -20.337379 -10.581762 -16.781002 29.697983 4.412657 2.428254 16.708776 -30.450056 22.881300 
